<svg width="243" height="104" viewBox="0 0 243 104" fill="none" xmlns="http://www.w3.org/2000/svg">
<g clip-path="url(#clip0_2_60)">
<path d="M64.5 47.875C58.725 47.875 54.1875 43.3375 54.1875 37.5625C54.1875 31.7875 58.725 27.25 64.5 27.25C70.275 27.25 74.8125 31.7875 74.8125 37.5625C74.8125 43.3375 70.275 47.875 64.5 47.875Z" fill="white"/>
<path d="M64.5 25.1875C63.2625 25.1875 62.4375 24.3625 62.4375 23.125V21.0625C62.4375 19.825 63.2625 19 64.5 19C65.7375 19 66.5625 19.825 66.5625 21.0625V23.125C66.5625 24.3625 65.7375 25.1875 64.5 25.1875Z" fill="white"/>
<path d="M64.5 56.125C63.2625 56.125 62.4375 55.3 62.4375 54.0625V52C62.4375 50.7625 63.2625 49.9375 64.5 49.9375C65.7375 49.9375 66.5625 50.7625 66.5625 52V54.0625C66.5625 55.3 65.7375 56.125 64.5 56.125Z" fill="white"/>
<path d="M51.9188 32.4063C51.5063 32.4063 51.3 32.4063 50.8875 32.2L49.0313 31.1688C48 30.55 47.7938 29.3125 48.2063 28.2812C48.825 27.25 50.0625 27.0437 51.0938 27.4562L52.95 28.4875C53.9813 29.1062 54.1875 30.3438 53.775 31.375C53.3625 31.9938 52.7438 32.4063 51.9188 32.4063Z" fill="white"/>
<path d="M78.7313 47.875C78.3188 47.875 78.1125 47.875 77.7 47.6687L75.8438 46.6375C74.8125 46.0187 74.6063 44.7812 75.0188 43.75C75.6375 42.7187 76.875 42.5125 77.9063 42.925L79.7625 43.9562C80.7938 44.575 81 45.8125 80.5875 46.8437C80.175 47.4625 79.5563 47.875 78.7313 47.875Z" fill="white"/>
<path d="M77.0812 32.4062C76.4625 32.4062 75.6375 31.9937 75.225 31.375C74.6062 30.3437 75.0187 29.1062 76.05 28.4875L77.9062 27.4562C78.9375 26.8375 80.175 27.25 80.7937 28.2812C81.4125 29.3125 81 30.55 79.9687 31.1687L78.1125 32.2C77.7 32.4062 77.2875 32.4062 77.0812 32.4062Z" fill="white"/>
<path d="M70.6875 85H19.125C18.3 85 17.6813 84.5875 17.2688 83.7625C16.8563 82.9375 17.0625 82.3187 17.475 81.7C24.075 73.2437 34.1813 68.5 44.9063 68.5C55.6313 68.5 65.7375 73.2437 72.3375 81.7C72.75 82.3187 72.9563 83.1437 72.5438 83.9688C72.1313 84.7938 71.5125 85 70.6875 85Z" fill="white"/>
<path d="M31.7062 62.3125H43.875C43.05 46.6375 39.1312 39.625 37.8937 39.625C36.6562 39.625 32.5312 46.6375 31.7062 62.3125Z" fill="white"/>
<path d="M31.9125 40.45C24.2812 42.7187 18.3 49.3187 17.2687 57.5687C17.0625 58.8062 17.475 59.8375 18.3 60.8687C18.9187 61.9 20.1562 62.3125 21.3937 62.3125H27.5812C27.9937 54.2687 29.2312 45.6062 31.9125 40.45Z" fill="white"/>
<path d="M58.1062 57.775C57.075 49.525 51.0937 42.925 43.4625 40.6562C46.1437 45.8125 47.3812 54.475 47.7937 62.5188H53.9812C55.2187 62.5188 56.25 62.1062 57.075 61.075C57.9 60.0437 58.3125 58.8062 58.1062 57.775Z" fill="white"/>
<path d="M37.6875 72.625C36.45 72.625 35.625 71.8 35.625 70.5625V60.25C35.625 59.0125 36.45 58.1875 37.6875 58.1875C38.925 58.1875 39.75 59.0125 39.75 60.25V70.5625C39.75 71.8 38.925 72.625 37.6875 72.625Z" fill="white"/>
</g>
<path d="M103.297 54.576C103.297 55.552 103.073 56.448 102.625 57.264C102.177 58.064 101.489 58.712 100.561 59.208C99.6328 59.704 98.4808 59.952 97.1048 59.952H94.5608V66H90.4568V49.152H97.1048C98.4488 49.152 99.5848 49.384 100.513 49.848C101.441 50.312 102.137 50.952 102.601 51.768C103.065 52.584 103.297 53.52 103.297 54.576ZM96.7928 56.688C97.5768 56.688 98.1608 56.504 98.5448 56.136C98.9288 55.768 99.1208 55.248 99.1208 54.576C99.1208 53.904 98.9288 53.384 98.5448 53.016C98.1608 52.648 97.5768 52.464 96.7928 52.464H94.5608V56.688H96.7928ZM107.497 51.216C106.777 51.216 106.185 51.008 105.721 50.592C105.273 50.16 105.049 49.632 105.049 49.008C105.049 48.368 105.273 47.84 105.721 47.424C106.185 46.992 106.777 46.776 107.497 46.776C108.201 46.776 108.777 46.992 109.225 47.424C109.689 47.84 109.921 48.368 109.921 49.008C109.921 49.632 109.689 50.16 109.225 50.592C108.777 51.008 108.201 51.216 107.497 51.216ZM109.537 52.608V66H105.433V52.608H109.537ZM116.615 48.24V66H112.511V48.24H116.615ZM118.774 59.28C118.774 57.904 119.03 56.696 119.542 55.656C120.07 54.616 120.782 53.816 121.678 53.256C122.574 52.696 123.574 52.416 124.678 52.416C125.622 52.416 126.446 52.608 127.15 52.992C127.87 53.376 128.422 53.88 128.806 54.504V52.608H132.91V66H128.806V64.104C128.406 64.728 127.846 65.232 127.126 65.616C126.422 66 125.598 66.192 124.654 66.192C123.566 66.192 122.574 65.912 121.678 65.352C120.782 64.776 120.07 63.968 119.542 62.928C119.03 61.872 118.774 60.656 118.774 59.28ZM128.806 59.304C128.806 58.28 128.518 57.472 127.942 56.88C127.382 56.288 126.694 55.992 125.878 55.992C125.062 55.992 124.366 56.288 123.79 56.88C123.23 57.456 122.95 58.256 122.95 59.28C122.95 60.304 123.23 61.12 123.79 61.728C124.366 62.32 125.062 62.616 125.878 62.616C126.694 62.616 127.382 62.32 127.942 61.728C128.518 61.136 128.806 60.328 128.806 59.304ZM139.983 54.84C140.463 54.104 141.063 53.528 141.783 53.112C142.503 52.68 143.303 52.464 144.183 52.464V56.808H143.055C142.031 56.808 141.263 57.032 140.751 57.48C140.239 57.912 139.983 58.68 139.983 59.784V66H135.879V52.608H139.983V54.84ZM150.534 57.552C150.534 55.888 150.894 54.408 151.614 53.112C152.334 51.8 153.334 50.784 154.614 50.064C155.91 49.328 157.374 48.96 159.006 48.96C161.006 48.96 162.718 49.488 164.142 50.544C165.566 51.6 166.518 53.04 166.998 54.864H162.486C162.15 54.16 161.67 53.624 161.046 53.256C160.438 52.888 159.742 52.704 158.958 52.704C157.694 52.704 156.67 53.144 155.886 54.024C155.102 54.904 154.71 56.08 154.71 57.552C154.71 59.024 155.102 60.2 155.886 61.08C156.67 61.96 157.694 62.4 158.958 62.4C159.742 62.4 160.438 62.216 161.046 61.848C161.67 61.48 162.15 60.944 162.486 60.24H166.998C166.518 62.064 165.566 63.504 164.142 64.56C162.718 65.6 161.006 66.12 159.006 66.12C157.374 66.12 155.91 65.76 154.614 65.04C153.334 64.304 152.334 63.288 151.614 61.992C150.894 60.696 150.534 59.216 150.534 57.552ZM173.615 48.24V66H169.511V48.24H173.615ZM189.814 52.608V66H185.71V64.176C185.294 64.768 184.726 65.248 184.006 65.616C183.302 65.968 182.518 66.144 181.654 66.144C180.63 66.144 179.726 65.92 178.942 65.472C178.158 65.008 177.55 64.344 177.118 63.48C176.686 62.616 176.47 61.6 176.47 60.432V52.608H180.55V59.88C180.55 60.776 180.782 61.472 181.246 61.968C181.71 62.464 182.334 62.712 183.118 62.712C183.918 62.712 184.55 62.464 185.014 61.968C185.478 61.472 185.71 60.776 185.71 59.88V52.608H189.814ZM196.865 54.504C197.249 53.88 197.801 53.376 198.521 52.992C199.241 52.608 200.065 52.416 200.993 52.416C202.097 52.416 203.097 52.696 203.993 53.256C204.889 53.816 205.593 54.616 206.105 55.656C206.633 56.696 206.897 57.904 206.897 59.28C206.897 60.656 206.633 61.872 206.105 62.928C205.593 63.968 204.889 64.776 203.993 65.352C203.097 65.912 202.097 66.192 200.993 66.192C200.049 66.192 199.225 66.008 198.521 65.64C197.817 65.256 197.265 64.752 196.865 64.128V66H192.761V48.24H196.865V54.504ZM202.721 59.28C202.721 58.256 202.433 57.456 201.857 56.88C201.297 56.288 200.601 55.992 199.769 55.992C198.953 55.992 198.257 56.288 197.681 56.88C197.121 57.472 196.841 58.28 196.841 59.304C196.841 60.328 197.121 61.136 197.681 61.728C198.257 62.32 198.953 62.616 199.769 62.616C200.585 62.616 201.281 62.32 201.857 61.728C202.433 61.12 202.721 60.304 202.721 59.28ZM221.674 59.088C221.674 59.472 221.651 59.872 221.603 60.288H212.315C212.379 61.12 212.643 61.76 213.107 62.208C213.587 62.64 214.171 62.856 214.859 62.856C215.883 62.856 216.595 62.424 216.995 61.56H221.363C221.139 62.44 220.731 63.232 220.139 63.936C219.563 64.64 218.835 65.192 217.955 65.592C217.075 65.992 216.091 66.192 215.003 66.192C213.691 66.192 212.523 65.912 211.499 65.352C210.475 64.792 209.675 63.992 209.099 62.952C208.523 61.912 208.235 60.696 208.235 59.304C208.235 57.912 208.515 56.696 209.075 55.656C209.651 54.616 210.451 53.816 211.475 53.256C212.499 52.696 213.675 52.416 215.003 52.416C216.299 52.416 217.451 52.688 218.459 53.232C219.467 53.776 220.251 54.552 220.811 55.56C221.387 56.568 221.674 57.744 221.674 59.088ZM217.475 58.008C217.475 57.304 217.235 56.744 216.755 56.328C216.275 55.912 215.675 55.704 214.955 55.704C214.267 55.704 213.683 55.904 213.203 56.304C212.739 56.704 212.451 57.272 212.339 58.008H217.475Z" fill="white"/>
<defs>
<clipPath id="clip0_2_60">
<rect width="66" height="66" fill="white" transform="translate(15 19)"/>
</clipPath>
</defs>
</svg>
